C:\GBW_MyPrograms\PredSimResults\gait1018_esmac\gait1018_esmac_v38.mot
version=1
nRows=9
nColumns=29
inDegrees=yes
endheader
                time	         pelvis_tilt	           pelvis_tx	           pelvis_ty	       hip_flexion_l	       hip_flexion_r	        knee_angle_l	        knee_angle_r	       ankle_angle_l	       ankle_angle_r	    lumbar_extension	hamstrings_r/activation	bifemsh_r/activation	glut_max_r/activation	iliopsoas_r/activation	rect_fem_r/activation	  vasti_r/activation	gastroc_r/activation	 soleus_r/activation	tib_ant_r/activation	hamstrings_l/activation	bifemsh_l/activation	glut_max_l/activation	iliopsoas_l/activation	rect_fem_l/activation	  vasti_l/activation	gastroc_l/activation	 soleus_l/activation	tib_ant_l/activation	
          1.55030412	         -7.70753108	          1.94285646	          0.89534263	         30.47218316	         -9.10102126	         -5.29493981	        -11.67687046	          7.23264872	          3.84027755	          1.16197929	          0.01000000	          0.06936967	          0.01000000	          0.17353670	          0.16960167	          0.01000000	          0.20994806	          0.29602768	          0.01167982	          0.13599384	          0.01000000	          0.02861694	          0.01531992	          0.01610894	          0.03107313	          0.01172255	          0.02761223	          0.21452850	
          1.56063948	         -7.68871929	          1.95906414	          0.89462392	         29.72797551	         -9.14266010	         -5.06076442	        -13.38763835	          6.63220764	          2.66639247	          1.51916418	          0.01000000	          0.05917621	          0.01172254	          0.14803652	          0.14467972	          0.01120444	          0.17909745	          0.25252818	          0.01000000	          0.12198960	          0.01000001	          0.04765200	          0.01306875	          0.01374183	          0.06934640	          0.01000000	          0.02355478	          0.28143290	
          1.57097484	         -7.66836469	          1.97550884	          0.89387476	         28.92965099	         -9.00085424	         -5.32845559	        -15.41877439	          5.76007956	          1.31993389	          1.90576325	          0.01888380	          0.05048062	          0.01000000	          0.12628344	          0.12341990	          0.02229560	          0.15278015	          0.21542067	          0.01000000	          0.10755150	          0.01000000	          0.09646196	          0.01114837	          0.01172255	          0.06464708	          0.01704434	          0.02009354	          0.31574584	
          1.58131020	         -7.65051324	          1.99194968	          0.89326255	         28.10425817	         -8.62558722	         -5.70999499	        -17.78925174	          4.80042129	         -0.32588695	          2.29601627	          0.01610894	          0.04306280	          0.03456905	          0.10772684	          0.10528409	          0.02294528	          0.13033002	          0.18376589	          0.01000000	          0.09174745	          0.01610891	          0.13895404	          0.01000000	          0.01000000	          0.05514758	          0.01453978	          0.01714092	          0.46483372	
          1.59164556	         -7.64030320	          2.00805709	          0.89302237	         27.38347122	         -7.96201425	         -6.20246975	        -20.49830387	          3.69718177	         -2.44103711	          2.65417699	          0.01374183	          0.03673498	          0.02948934	          0.09189703	          0.11863114	          0.01957361	          0.11117880	          0.15676259	          0.01000000	          0.07870107	          0.01374181	          0.16669763	          0.01000000	          0.01000000	          0.14579434	          0.01240324	          0.01462216	          0.53086560	
          1.60198092	         -7.63903667	          2.02367444	          0.89326238	         26.76192932	         -7.00235712	         -6.82802097	        -23.50726852	          2.84977651	         -5.03825544	          2.96272624	          0.01172255	          0.03133699	          0.02515605	          0.07839331	          0.10977618	          0.01669739	          0.09484174	          0.13372727	          0.23632758	          0.07093183	          0.01172253	          0.18893501	          0.01000000	          0.01000000	          0.22206289	          0.01058066	          0.01247353	          0.59357488	
          1.61231628	         -7.64807905	          2.03870889	          0.89388616	         26.17302013	         -5.80778890	         -7.47058696	        -26.70086303	          2.36980131	         -7.50988599	          3.21218430	          0.01000000	          0.02673221	          0.02145952	          0.06687388	          0.15454227	          0.01424381	          0.08090532	          0.11407685	          0.20160065	          0.06460706	          0.01000000	          0.19779569	          0.01000000	          0.01000000	          0.26449341	          0.01000000	          0.01064062	          0.63234803	
          1.62265165	         -7.66794231	          2.05316079	          0.89483736	         25.56914134	         -4.47923045	         -8.03332062	        -29.83577795	          2.17429396	         -8.68489392	          3.40387609	          0.01000000	          0.02373768	          0.01830617	          0.05704721	          0.15256437	          0.01215076	          0.06901676	          0.09731393	          0.21859496	          0.05725660	          0.01000000	          0.18324414	          0.01000000	          0.01000000	          0.27544908	          0.01000000	          0.01146875	          0.62967446	
          1.63298701	         -7.69758020	          2.06710487	          0.89614386	         24.93057326	         -3.05415689	         -8.48181920	        -32.81091587	          2.19023744	         -9.13868257	          3.54683987	          0.01972667	          0.06213186	          0.01561619	          0.05369407	          0.20149025	          0.01036528	          0.05887516	          0.08301423	          0.25509173	          0.06048790	          0.01000000	          0.16932349	          0.01000000	          0.01000000	          0.27159421	          0.01000000	          0.01665055	          0.61063974	
